<svg xmlns="http://www.w3.org/2000/svg" width="15" height="15" viewBox="0 0 15 15" fill="none">
  <path d="M 2.95 1.667 C 3 2.408 3.125 3.133 3.325 3.825 L 2.325 4.825 C 1.983 3.825 1.767 2.767 1.692 1.667 L 2.95 1.667 Z M 11.167 11.683 C 11.875 11.883 12.6 12.008 13.333 12.058 L 13.333 13.3 C 12.233 13.225 11.175 13.008 10.167 12.675 L 11.167 11.683 Z M 3.75 0 L 0.833 0 C 0.375 0 0 0.375 0 0.833 C 0 8.658 6.342 15 14.167 15 C 14.625 15 15 14.625 15 14.167 L 15 11.258 C 15 10.8 14.625 10.425 14.167 10.425 C 13.133 10.425 12.125 10.258 11.192 9.95 C 11.109 9.919 11.021 9.905 10.933 9.908 C 10.717 9.908 10.508 9.992 10.342 10.15 L 8.508 11.983 C 6.146 10.775 4.225 8.854 3.017 6.492 L 4.85 4.658 C 5.083 4.425 5.15 4.1 5.058 3.808 C 4.743 2.848 4.582 1.844 4.583 0.833 C 4.583 0.375 4.208 0 3.75 0 Z" fill="currentColor" fill-rule="nonzero"></path>
</svg>